{
    "asset" : {
        "generator" : "Khronos glTF Blender I/O v1.5.17",
        "version" : "2.0"
    },
    "scene" : 0,
    "scenes" : [
        {
            "name" : "Scene",
            "nodes" : [
                0,
                1,
                2,
                3,
                4
            ]
        }
    ],
    "nodes" : [
        {
            "name" : "Light.001",
            "rotation" : [
                0.16907575726509094,
                0.7558803558349609,
                -0.27217137813568115,
                0.570947527885437
            ],
            "scale" : [
                0.4291800260543823,
                0.4291800260543823,
                0.4291800260543823
            ],
            "translation" : [
                2.6410584449768066,
                6.2192816734313965,
                0.694961428642273
            ]
        },
        {
            "name" : "Camera.001",
            "rotation" : [
                0.483536034822464,
                0.33687159419059753,
                -0.20870360732078552,
                0.7804827094078064
            ],
            "scale" : [
                0.4291800260543823,
                0.4291800260543823,
                0.4291800260543823
            ],
            "translation" : [
                4.049904823303223,
                5.813469409942627,
                4.098893165588379
            ]
        },
        {
            "mesh" : 0,
            "name" : "Part2",
            "rotation" : [
                0.9999025464057922,
                0,
                0,
                -0.013959832489490509
            ],
            "scale" : [
                0.21660670638084412,
                0.2166067361831665,
                0.2166067361831665
            ],
            "translation" : [
                0.8362340927124023,
                7.336553573608398,
                1.1264821290969849
            ]
        },
        {
            "name" : "Light",
            "rotation" : [
                0.16907575726509094,
                0.7558803558349609,
                -0.27217137813568115,
                0.570947527885437
            ],
            "translation" : [
                4.076245307922363,
                5.903861999511719,
                -1.0054539442062378
            ]
        },
        {
            "name" : "Camera",
            "rotation" : [
                0.483536034822464,
                0.33687159419059753,
                -0.20870360732078552,
                0.7804827094078064
            ],
            "translation" : [
                7.358891487121582,
                4.958309173583984,
                6.925790786743164
            ]
        }
    ],
    "materials" : [
        {
            "doubleSided" : true,
            "name" : "wire_166229229",
            "pbrMetallicRoughness" : {
                "baseColorFactor" : [
                    0.6510000228881836,
                    0.8980000019073486,
                    0.8980000019073486,
                    1
                ],
                "metallicFactor" : 0,
                "roughnessFactor" : 0.8114382028579712
            }
        }
    ],
    "meshes" : [
        {
            "name" : "Part2",
            "primitives" : [
                {
                    "attributes" : {
                        "POSITION" : 0,
                        "NORMAL" : 1
                    },
                    "indices" : 2,
                    "material" : 0
                }
            ]
        }
    ],
    "accessors" : [
        {
            "bufferView" : 0,
            "componentType" : 5126,
            "count" : 2081,
            "max" : [
                22.094881057739258,
                13.572486877441406,
                -0.47056394815444946
            ],
            "min" : [
                -24.05381965637207,
                -12.492712020874023,
                -6.470563888549805
            ],
            "type" : "VEC3"
        },
        {
            "bufferView" : 1,
            "componentType" : 5126,
            "count" : 2081,
            "type" : "VEC3"
        },
        {
            "bufferView" : 2,
            "componentType" : 5123,
            "count" : 3378,
            "type" : "SCALAR"
        }
    ],
    "bufferViews" : [
        {
            "buffer" : 0,
            "byteLength" : 24972,
            "byteOffset" : 0
        },
        {
            "buffer" : 0,
            "byteLength" : 24972,
            "byteOffset" : 24972
        },
        {
            "buffer" : 0,
            "byteLength" : 6756,
            "byteOffset" : 49944
        }
    ],
    "buffers" : [
        {
            "byteLength" : 56700,
            "uri" : "data:application/octet-stream;base64,"
        }
    ]
}
